<mxfile host="app.diagrams.net" agent="Mozilla/5.0 (Windows NT 10.0; Win64; x64) AppleWebKit/537.36 (KHTML, like Gecko) Chrome/128.0.0.0 Safari/537.36 OPR/114.0.0.0" version="24.8.4">
  <diagram name="Pagina-1" id="zaQkDbtpFNmVqCY4Ck2A">
    <mxGraphModel dx="1682" dy="898" grid="0" gridSize="10" guides="1" tooltips="1" connect="1" arrows="1" fold="1" page="1" pageScale="1" pageWidth="1169" pageHeight="827" math="0" shadow="0">
      <root>
        <mxCell id="0" />
        <mxCell id="1" parent="0" />
        <mxCell id="ApuNhBn8Jfl1v1Id8GHo-2" style="edgeStyle=orthogonalEdgeStyle;rounded=0;orthogonalLoop=1;jettySize=auto;html=1;exitX=1;exitY=0.5;exitDx=0;exitDy=0;" edge="1" parent="1" source="ApuNhBn8Jfl1v1Id8GHo-1" target="ApuNhBn8Jfl1v1Id8GHo-3">
          <mxGeometry relative="1" as="geometry">
            <mxPoint x="716" y="94" as="targetPoint" />
          </mxGeometry>
        </mxCell>
        <mxCell id="ApuNhBn8Jfl1v1Id8GHo-5" style="edgeStyle=orthogonalEdgeStyle;rounded=0;orthogonalLoop=1;jettySize=auto;html=1;exitX=0.75;exitY=0;exitDx=0;exitDy=0;entryX=0.5;entryY=1;entryDx=0;entryDy=0;" edge="1" parent="1" source="ApuNhBn8Jfl1v1Id8GHo-1" target="ApuNhBn8Jfl1v1Id8GHo-4">
          <mxGeometry relative="1" as="geometry" />
        </mxCell>
        <mxCell id="ApuNhBn8Jfl1v1Id8GHo-7" style="edgeStyle=orthogonalEdgeStyle;rounded=0;orthogonalLoop=1;jettySize=auto;html=1;exitX=0.5;exitY=0;exitDx=0;exitDy=0;entryX=0.5;entryY=1;entryDx=0;entryDy=0;" edge="1" parent="1" source="ApuNhBn8Jfl1v1Id8GHo-1" target="ApuNhBn8Jfl1v1Id8GHo-6">
          <mxGeometry relative="1" as="geometry" />
        </mxCell>
        <mxCell id="ApuNhBn8Jfl1v1Id8GHo-10" style="edgeStyle=orthogonalEdgeStyle;rounded=0;orthogonalLoop=1;jettySize=auto;html=1;exitX=0;exitY=0.25;exitDx=0;exitDy=0;entryX=0.5;entryY=1;entryDx=0;entryDy=0;" edge="1" parent="1" source="ApuNhBn8Jfl1v1Id8GHo-1" target="ApuNhBn8Jfl1v1Id8GHo-9">
          <mxGeometry relative="1" as="geometry" />
        </mxCell>
        <mxCell id="ApuNhBn8Jfl1v1Id8GHo-23" style="edgeStyle=orthogonalEdgeStyle;rounded=0;orthogonalLoop=1;jettySize=auto;html=1;exitX=0;exitY=0.5;exitDx=0;exitDy=0;entryX=1;entryY=0.5;entryDx=0;entryDy=0;" edge="1" parent="1" source="ApuNhBn8Jfl1v1Id8GHo-1" target="ApuNhBn8Jfl1v1Id8GHo-11">
          <mxGeometry relative="1" as="geometry" />
        </mxCell>
        <mxCell id="ApuNhBn8Jfl1v1Id8GHo-1" value="Account" style="whiteSpace=wrap;html=1;align=center;" vertex="1" parent="1">
          <mxGeometry x="586" y="74" width="100" height="40" as="geometry" />
        </mxCell>
        <mxCell id="ApuNhBn8Jfl1v1Id8GHo-3" value="id_account" style="ellipse;whiteSpace=wrap;html=1;align=center;fontStyle=4;" vertex="1" parent="1">
          <mxGeometry x="716" y="79" width="80" height="30" as="geometry" />
        </mxCell>
        <mxCell id="ApuNhBn8Jfl1v1Id8GHo-4" value="nome account" style="ellipse;whiteSpace=wrap;html=1;align=center;" vertex="1" parent="1">
          <mxGeometry x="656" y="14" width="90" height="30" as="geometry" />
        </mxCell>
        <mxCell id="ApuNhBn8Jfl1v1Id8GHo-6" value="email" style="ellipse;whiteSpace=wrap;html=1;align=center;" vertex="1" parent="1">
          <mxGeometry x="566" y="14" width="80" height="25" as="geometry" />
        </mxCell>
        <mxCell id="ApuNhBn8Jfl1v1Id8GHo-9" value="password" style="ellipse;whiteSpace=wrap;html=1;align=center;" vertex="1" parent="1">
          <mxGeometry x="496" y="44" width="80" height="20" as="geometry" />
        </mxCell>
        <mxCell id="ApuNhBn8Jfl1v1Id8GHo-11" value="anno_creazione" style="ellipse;whiteSpace=wrap;html=1;align=center;" vertex="1" parent="1">
          <mxGeometry x="446" y="84" width="100" height="30" as="geometry" />
        </mxCell>
        <mxCell id="ApuNhBn8Jfl1v1Id8GHo-20" style="edgeStyle=orthogonalEdgeStyle;rounded=0;orthogonalLoop=1;jettySize=auto;html=1;exitX=0;exitY=0.5;exitDx=0;exitDy=0;" edge="1" parent="1" source="ApuNhBn8Jfl1v1Id8GHo-13" target="ApuNhBn8Jfl1v1Id8GHo-18">
          <mxGeometry relative="1" as="geometry">
            <mxPoint x="576.0000000000041" y="204" as="sourcePoint" />
          </mxGeometry>
        </mxCell>
        <mxCell id="ApuNhBn8Jfl1v1Id8GHo-21" style="edgeStyle=orthogonalEdgeStyle;rounded=0;orthogonalLoop=1;jettySize=auto;html=1;exitX=1;exitY=0.5;exitDx=0;exitDy=0;" edge="1" parent="1" source="ApuNhBn8Jfl1v1Id8GHo-13" target="ApuNhBn8Jfl1v1Id8GHo-19">
          <mxGeometry relative="1" as="geometry" />
        </mxCell>
        <mxCell id="ApuNhBn8Jfl1v1Id8GHo-13" value="&lt;font style=&quot;font-size: 24px;&quot;&gt;d&lt;/font&gt;" style="ellipse;whiteSpace=wrap;html=1;aspect=fixed;" vertex="1" parent="1">
          <mxGeometry x="616" y="184" width="40" height="40" as="geometry" />
        </mxCell>
        <mxCell id="ApuNhBn8Jfl1v1Id8GHo-14" value="" style="endArrow=none;html=1;rounded=0;exitX=0.747;exitY=0.065;exitDx=0;exitDy=0;exitPerimeter=0;" edge="1" parent="1" source="ApuNhBn8Jfl1v1Id8GHo-13">
          <mxGeometry width="50" height="50" relative="1" as="geometry">
            <mxPoint x="646" y="184" as="sourcePoint" />
            <mxPoint x="646" y="114" as="targetPoint" />
          </mxGeometry>
        </mxCell>
        <mxCell id="ApuNhBn8Jfl1v1Id8GHo-15" value="" style="endArrow=none;html=1;rounded=0;entryX=0.392;entryY=1.03;entryDx=0;entryDy=0;entryPerimeter=0;exitX=0.231;exitY=0.086;exitDx=0;exitDy=0;exitPerimeter=0;" edge="1" parent="1" source="ApuNhBn8Jfl1v1Id8GHo-13" target="ApuNhBn8Jfl1v1Id8GHo-1">
          <mxGeometry width="50" height="50" relative="1" as="geometry">
            <mxPoint x="625" y="184" as="sourcePoint" />
            <mxPoint x="466" y="144" as="targetPoint" />
            <Array as="points" />
          </mxGeometry>
        </mxCell>
        <mxCell id="ApuNhBn8Jfl1v1Id8GHo-24" style="edgeStyle=orthogonalEdgeStyle;rounded=0;orthogonalLoop=1;jettySize=auto;html=1;exitX=0;exitY=0.5;exitDx=0;exitDy=0;entryX=1;entryY=0.5;entryDx=0;entryDy=0;" edge="1" parent="1" source="ApuNhBn8Jfl1v1Id8GHo-18" target="ApuNhBn8Jfl1v1Id8GHo-22">
          <mxGeometry relative="1" as="geometry" />
        </mxCell>
        <mxCell id="ApuNhBn8Jfl1v1Id8GHo-26" style="edgeStyle=orthogonalEdgeStyle;rounded=0;orthogonalLoop=1;jettySize=auto;html=1;exitX=0;exitY=0.25;exitDx=0;exitDy=0;" edge="1" parent="1" source="ApuNhBn8Jfl1v1Id8GHo-18" target="ApuNhBn8Jfl1v1Id8GHo-25">
          <mxGeometry relative="1" as="geometry" />
        </mxCell>
        <mxCell id="ApuNhBn8Jfl1v1Id8GHo-62" style="edgeStyle=orthogonalEdgeStyle;rounded=0;orthogonalLoop=1;jettySize=auto;html=1;exitX=0.5;exitY=1;exitDx=0;exitDy=0;entryX=0.5;entryY=0;entryDx=0;entryDy=0;" edge="1" parent="1" source="ApuNhBn8Jfl1v1Id8GHo-18" target="ApuNhBn8Jfl1v1Id8GHo-61">
          <mxGeometry relative="1" as="geometry" />
        </mxCell>
        <mxCell id="ApuNhBn8Jfl1v1Id8GHo-81" style="edgeStyle=orthogonalEdgeStyle;rounded=0;orthogonalLoop=1;jettySize=auto;html=1;exitX=0.5;exitY=1;exitDx=0;exitDy=0;" edge="1" parent="1" source="ApuNhBn8Jfl1v1Id8GHo-18" target="ApuNhBn8Jfl1v1Id8GHo-82">
          <mxGeometry relative="1" as="geometry">
            <mxPoint x="716" y="334" as="targetPoint" />
          </mxGeometry>
        </mxCell>
        <mxCell id="ApuNhBn8Jfl1v1Id8GHo-18" value="Utente" style="whiteSpace=wrap;html=1;align=center;" vertex="1" parent="1">
          <mxGeometry x="376" y="234" width="100" height="40" as="geometry" />
        </mxCell>
        <mxCell id="ApuNhBn8Jfl1v1Id8GHo-52" style="edgeStyle=orthogonalEdgeStyle;rounded=0;orthogonalLoop=1;jettySize=auto;html=1;exitX=0.75;exitY=0;exitDx=0;exitDy=0;entryX=0.5;entryY=1;entryDx=0;entryDy=0;" edge="1" parent="1" source="ApuNhBn8Jfl1v1Id8GHo-19" target="ApuNhBn8Jfl1v1Id8GHo-29">
          <mxGeometry relative="1" as="geometry" />
        </mxCell>
        <mxCell id="ApuNhBn8Jfl1v1Id8GHo-53" style="edgeStyle=orthogonalEdgeStyle;rounded=0;orthogonalLoop=1;jettySize=auto;html=1;exitX=1;exitY=0.25;exitDx=0;exitDy=0;entryX=0;entryY=0.5;entryDx=0;entryDy=0;" edge="1" parent="1" source="ApuNhBn8Jfl1v1Id8GHo-19" target="ApuNhBn8Jfl1v1Id8GHo-108">
          <mxGeometry relative="1" as="geometry">
            <mxPoint x="1036" y="233.9999999999999" as="targetPoint" />
          </mxGeometry>
        </mxCell>
        <mxCell id="ApuNhBn8Jfl1v1Id8GHo-54" style="edgeStyle=orthogonalEdgeStyle;rounded=0;orthogonalLoop=1;jettySize=auto;html=1;exitX=1;exitY=0.75;exitDx=0;exitDy=0;entryX=0.5;entryY=0;entryDx=0;entryDy=0;" edge="1" parent="1" source="ApuNhBn8Jfl1v1Id8GHo-19" target="ApuNhBn8Jfl1v1Id8GHo-31">
          <mxGeometry relative="1" as="geometry" />
        </mxCell>
        <mxCell id="ApuNhBn8Jfl1v1Id8GHo-114" style="edgeStyle=orthogonalEdgeStyle;rounded=0;orthogonalLoop=1;jettySize=auto;html=1;exitX=0.5;exitY=1;exitDx=0;exitDy=0;entryX=0.5;entryY=0;entryDx=0;entryDy=0;" edge="1" parent="1" source="ApuNhBn8Jfl1v1Id8GHo-19" target="ApuNhBn8Jfl1v1Id8GHo-113">
          <mxGeometry relative="1" as="geometry">
            <mxPoint x="906" y="329" as="targetPoint" />
          </mxGeometry>
        </mxCell>
        <mxCell id="ApuNhBn8Jfl1v1Id8GHo-19" value="Publisher" style="whiteSpace=wrap;html=1;align=center;" vertex="1" parent="1">
          <mxGeometry x="856" y="239" width="100" height="40" as="geometry" />
        </mxCell>
        <mxCell id="ApuNhBn8Jfl1v1Id8GHo-22" value="&lt;span data-darkreader-inline-border-bottom=&quot;&quot; style=&quot;border-bottom: 1px dotted; --darkreader-inline-border-bottom: initial;&quot;&gt;&lt;u&gt;id_utente&lt;/u&gt;&lt;/span&gt;" style="ellipse;whiteSpace=wrap;html=1;align=center;" vertex="1" parent="1">
          <mxGeometry x="246" y="254" width="70" height="20" as="geometry" />
        </mxCell>
        <mxCell id="ApuNhBn8Jfl1v1Id8GHo-25" value="giochi_giocati" style="ellipse;whiteSpace=wrap;html=1;align=center;" vertex="1" parent="1">
          <mxGeometry x="256" y="204" width="100" height="20" as="geometry" />
        </mxCell>
        <mxCell id="ApuNhBn8Jfl1v1Id8GHo-29" value="valutazione" style="ellipse;whiteSpace=wrap;html=1;align=center;" vertex="1" parent="1">
          <mxGeometry x="936" y="179" width="100" height="20" as="geometry" />
        </mxCell>
        <mxCell id="ApuNhBn8Jfl1v1Id8GHo-31" value="&lt;u&gt;id_publisher&lt;/u&gt;" style="ellipse;whiteSpace=wrap;html=1;align=center;" vertex="1" parent="1">
          <mxGeometry x="996" y="289" width="90" height="20" as="geometry" />
        </mxCell>
        <mxCell id="ApuNhBn8Jfl1v1Id8GHo-66" style="edgeStyle=orthogonalEdgeStyle;rounded=0;orthogonalLoop=1;jettySize=auto;html=1;exitX=0;exitY=0.75;exitDx=0;exitDy=0;entryX=0.5;entryY=0;entryDx=0;entryDy=0;" edge="1" parent="1" source="ApuNhBn8Jfl1v1Id8GHo-56" target="ApuNhBn8Jfl1v1Id8GHo-58">
          <mxGeometry relative="1" as="geometry" />
        </mxCell>
        <mxCell id="ApuNhBn8Jfl1v1Id8GHo-69" style="edgeStyle=orthogonalEdgeStyle;rounded=0;orthogonalLoop=1;jettySize=auto;html=1;exitX=1;exitY=0.75;exitDx=0;exitDy=0;entryX=0.5;entryY=0;entryDx=0;entryDy=0;" edge="1" parent="1" source="ApuNhBn8Jfl1v1Id8GHo-56" target="ApuNhBn8Jfl1v1Id8GHo-59">
          <mxGeometry relative="1" as="geometry" />
        </mxCell>
        <mxCell id="ApuNhBn8Jfl1v1Id8GHo-76" style="edgeStyle=orthogonalEdgeStyle;rounded=0;orthogonalLoop=1;jettySize=auto;html=1;exitX=0;exitY=0.25;exitDx=0;exitDy=0;entryX=0.5;entryY=1;entryDx=0;entryDy=0;" edge="1" parent="1" source="ApuNhBn8Jfl1v1Id8GHo-56" target="ApuNhBn8Jfl1v1Id8GHo-57">
          <mxGeometry relative="1" as="geometry" />
        </mxCell>
        <mxCell id="ApuNhBn8Jfl1v1Id8GHo-77" style="edgeStyle=orthogonalEdgeStyle;rounded=0;orthogonalLoop=1;jettySize=auto;html=1;exitX=1;exitY=0.25;exitDx=0;exitDy=0;entryX=0.5;entryY=1;entryDx=0;entryDy=0;" edge="1" parent="1" source="ApuNhBn8Jfl1v1Id8GHo-56" target="ApuNhBn8Jfl1v1Id8GHo-70">
          <mxGeometry relative="1" as="geometry" />
        </mxCell>
        <mxCell id="ApuNhBn8Jfl1v1Id8GHo-56" value="Libreria" style="whiteSpace=wrap;html=1;align=center;" vertex="1" parent="1">
          <mxGeometry x="182" y="494" width="100" height="40" as="geometry" />
        </mxCell>
        <mxCell id="ApuNhBn8Jfl1v1Id8GHo-57" value="giochi_acquistati" style="ellipse;whiteSpace=wrap;html=1;align=center;" vertex="1" parent="1">
          <mxGeometry x="37" y="444" width="100" height="40" as="geometry" />
        </mxCell>
        <mxCell id="ApuNhBn8Jfl1v1Id8GHo-58" value="preferiti" style="ellipse;whiteSpace=wrap;html=1;align=center;" vertex="1" parent="1">
          <mxGeometry x="37" y="544" width="100" height="40" as="geometry" />
        </mxCell>
        <mxCell id="ApuNhBn8Jfl1v1Id8GHo-59" value="status" style="ellipse;whiteSpace=wrap;html=1;align=center;" vertex="1" parent="1">
          <mxGeometry x="326" y="544" width="100" height="40" as="geometry" />
        </mxCell>
        <mxCell id="ApuNhBn8Jfl1v1Id8GHo-73" style="edgeStyle=orthogonalEdgeStyle;rounded=0;orthogonalLoop=1;jettySize=auto;html=1;exitX=0.5;exitY=1;exitDx=0;exitDy=0;" edge="1" parent="1" source="ApuNhBn8Jfl1v1Id8GHo-61" target="ApuNhBn8Jfl1v1Id8GHo-56">
          <mxGeometry relative="1" as="geometry">
            <mxPoint x="302" y="424" as="sourcePoint" />
          </mxGeometry>
        </mxCell>
        <mxCell id="ApuNhBn8Jfl1v1Id8GHo-61" value="ottiene" style="shape=rhombus;perimeter=rhombusPerimeter;whiteSpace=wrap;html=1;align=center;" vertex="1" parent="1">
          <mxGeometry x="276" y="344" width="80" height="40" as="geometry" />
        </mxCell>
        <mxCell id="ApuNhBn8Jfl1v1Id8GHo-70" value="&lt;span data-darkreader-inline-border-bottom=&quot;&quot; style=&quot;border-bottom: 1px dotted; --darkreader-inline-border-bottom: initial;&quot;&gt;id_utente(fk)&lt;/span&gt;" style="ellipse;whiteSpace=wrap;html=1;align=center;" vertex="1" parent="1">
          <mxGeometry x="326" y="444" width="100" height="40" as="geometry" />
        </mxCell>
        <mxCell id="ApuNhBn8Jfl1v1Id8GHo-91" style="edgeStyle=orthogonalEdgeStyle;rounded=0;orthogonalLoop=1;jettySize=auto;html=1;exitX=0;exitY=0;exitDx=0;exitDy=0;" edge="1" parent="1" source="ApuNhBn8Jfl1v1Id8GHo-75">
          <mxGeometry relative="1" as="geometry">
            <mxPoint x="646" y="444.16666666666674" as="targetPoint" />
          </mxGeometry>
        </mxCell>
        <mxCell id="ApuNhBn8Jfl1v1Id8GHo-92" style="edgeStyle=orthogonalEdgeStyle;rounded=0;orthogonalLoop=1;jettySize=auto;html=1;exitX=0;exitY=0.5;exitDx=0;exitDy=0;entryX=1;entryY=0.5;entryDx=0;entryDy=0;" edge="1" parent="1" source="ApuNhBn8Jfl1v1Id8GHo-75" target="ApuNhBn8Jfl1v1Id8GHo-85">
          <mxGeometry relative="1" as="geometry" />
        </mxCell>
        <mxCell id="ApuNhBn8Jfl1v1Id8GHo-93" style="edgeStyle=orthogonalEdgeStyle;rounded=0;orthogonalLoop=1;jettySize=auto;html=1;exitX=0;exitY=1;exitDx=0;exitDy=0;entryX=0.5;entryY=0;entryDx=0;entryDy=0;" edge="1" parent="1" source="ApuNhBn8Jfl1v1Id8GHo-75" target="ApuNhBn8Jfl1v1Id8GHo-86">
          <mxGeometry relative="1" as="geometry" />
        </mxCell>
        <mxCell id="ApuNhBn8Jfl1v1Id8GHo-94" style="edgeStyle=orthogonalEdgeStyle;rounded=0;orthogonalLoop=1;jettySize=auto;html=1;exitX=1;exitY=0;exitDx=0;exitDy=0;entryX=0;entryY=0.5;entryDx=0;entryDy=0;" edge="1" parent="1" source="ApuNhBn8Jfl1v1Id8GHo-75" target="ApuNhBn8Jfl1v1Id8GHo-88">
          <mxGeometry relative="1" as="geometry" />
        </mxCell>
        <mxCell id="ApuNhBn8Jfl1v1Id8GHo-95" style="edgeStyle=orthogonalEdgeStyle;rounded=0;orthogonalLoop=1;jettySize=auto;html=1;exitX=1;exitY=0.25;exitDx=0;exitDy=0;entryX=0.5;entryY=0;entryDx=0;entryDy=0;" edge="1" parent="1" source="ApuNhBn8Jfl1v1Id8GHo-75" target="ApuNhBn8Jfl1v1Id8GHo-87">
          <mxGeometry relative="1" as="geometry" />
        </mxCell>
        <mxCell id="ApuNhBn8Jfl1v1Id8GHo-96" style="edgeStyle=orthogonalEdgeStyle;rounded=0;orthogonalLoop=1;jettySize=auto;html=1;exitX=1;exitY=1;exitDx=0;exitDy=0;entryX=0;entryY=0.5;entryDx=0;entryDy=0;" edge="1" parent="1" source="ApuNhBn8Jfl1v1Id8GHo-75" target="ApuNhBn8Jfl1v1Id8GHo-90">
          <mxGeometry relative="1" as="geometry" />
        </mxCell>
        <mxCell id="ApuNhBn8Jfl1v1Id8GHo-97" style="edgeStyle=orthogonalEdgeStyle;rounded=0;orthogonalLoop=1;jettySize=auto;html=1;exitX=0.75;exitY=1;exitDx=0;exitDy=0;entryX=0;entryY=0.5;entryDx=0;entryDy=0;" edge="1" parent="1" source="ApuNhBn8Jfl1v1Id8GHo-75" target="ApuNhBn8Jfl1v1Id8GHo-89">
          <mxGeometry relative="1" as="geometry" />
        </mxCell>
        <mxCell id="ApuNhBn8Jfl1v1Id8GHo-100" style="edgeStyle=orthogonalEdgeStyle;rounded=0;orthogonalLoop=1;jettySize=auto;html=1;exitX=0.5;exitY=1;exitDx=0;exitDy=0;" edge="1" parent="1" source="ApuNhBn8Jfl1v1Id8GHo-75" target="ApuNhBn8Jfl1v1Id8GHo-99">
          <mxGeometry relative="1" as="geometry">
            <Array as="points">
              <mxPoint x="726" y="620" />
            </Array>
          </mxGeometry>
        </mxCell>
        <mxCell id="ApuNhBn8Jfl1v1Id8GHo-75" value="gioco" style="whiteSpace=wrap;html=1;align=center;" vertex="1" parent="1">
          <mxGeometry x="676" y="444" width="100" height="40" as="geometry" />
        </mxCell>
        <mxCell id="ApuNhBn8Jfl1v1Id8GHo-83" style="edgeStyle=orthogonalEdgeStyle;rounded=0;orthogonalLoop=1;jettySize=auto;html=1;exitX=0.5;exitY=1;exitDx=0;exitDy=0;entryX=0.5;entryY=0;entryDx=0;entryDy=0;" edge="1" parent="1" source="ApuNhBn8Jfl1v1Id8GHo-82" target="ApuNhBn8Jfl1v1Id8GHo-75">
          <mxGeometry relative="1" as="geometry" />
        </mxCell>
        <mxCell id="ApuNhBn8Jfl1v1Id8GHo-82" value="possiede" style="shape=rhombus;perimeter=rhombusPerimeter;whiteSpace=wrap;html=1;align=center;" vertex="1" parent="1">
          <mxGeometry x="591" y="334" width="90" height="40" as="geometry" />
        </mxCell>
        <mxCell id="ApuNhBn8Jfl1v1Id8GHo-84" value="id_gioco" style="ellipse;whiteSpace=wrap;html=1;align=center;fontStyle=4;" vertex="1" parent="1">
          <mxGeometry x="546" y="424" width="100" height="40" as="geometry" />
        </mxCell>
        <mxCell id="ApuNhBn8Jfl1v1Id8GHo-85" value="nome" style="ellipse;whiteSpace=wrap;html=1;align=center;" vertex="1" parent="1">
          <mxGeometry x="526" y="484" width="100" height="40" as="geometry" />
        </mxCell>
        <mxCell id="ApuNhBn8Jfl1v1Id8GHo-86" value="durata" style="ellipse;whiteSpace=wrap;html=1;align=center;" vertex="1" parent="1">
          <mxGeometry x="559" y="564" width="100" height="40" as="geometry" />
        </mxCell>
        <mxCell id="ApuNhBn8Jfl1v1Id8GHo-87" value="media_recensioni" style="ellipse;whiteSpace=wrap;html=1;align=center;" vertex="1" parent="1">
          <mxGeometry x="846" y="479" width="100" height="40" as="geometry" />
        </mxCell>
        <mxCell id="ApuNhBn8Jfl1v1Id8GHo-88" value="anno_uscita&lt;span style=&quot;font-family: monospace; font-size: 0px; text-align: start; text-wrap: nowrap;&quot;&gt;%3CmxGraphModel%3E%3Croot%3E%3CmxCell%20id%3D%220%22%2F%3E%3CmxCell%20id%3D%221%22%20parent%3D%220%22%2F%3E%3CmxCell%20id%3D%222%22%20value%3D%22media_recensioni%22%20style%3D%22ellipse%3BwhiteSpace%3Dwrap%3Bhtml%3D1%3Balign%3Dcenter%3B%22%20vertex%3D%221%22%20parent%3D%221%22%3E%3CmxGeometry%20x%3D%22460%22%20y%3D%22650%22%20width%3D%22100%22%20height%3D%2240%22%20as%3D%22geometry%22%2F%3E%3C%2FmxCell%3E%3C%2Froot%3E%3C%2FmxGraphModel%3E&lt;/span&gt;" style="ellipse;whiteSpace=wrap;html=1;align=center;" vertex="1" parent="1">
          <mxGeometry x="846" y="404" width="100" height="40" as="geometry" />
        </mxCell>
        <mxCell id="ApuNhBn8Jfl1v1Id8GHo-89" value="publisher(fk)" style="ellipse;whiteSpace=wrap;html=1;align=center;" vertex="1" parent="1">
          <mxGeometry x="816" y="584" width="100" height="40" as="geometry" />
        </mxCell>
        <mxCell id="ApuNhBn8Jfl1v1Id8GHo-90" value="prezzo" style="ellipse;whiteSpace=wrap;html=1;align=center;" vertex="1" parent="1">
          <mxGeometry x="796" y="524" width="100" height="40" as="geometry" />
        </mxCell>
        <mxCell id="ApuNhBn8Jfl1v1Id8GHo-102" style="edgeStyle=orthogonalEdgeStyle;rounded=0;orthogonalLoop=1;jettySize=auto;html=1;entryX=0.5;entryY=0;entryDx=0;entryDy=0;exitX=0.5;exitY=1;exitDx=0;exitDy=0;" edge="1" parent="1" source="ApuNhBn8Jfl1v1Id8GHo-99" target="ApuNhBn8Jfl1v1Id8GHo-101">
          <mxGeometry relative="1" as="geometry">
            <mxPoint x="426" y="650" as="sourcePoint" />
          </mxGeometry>
        </mxCell>
        <mxCell id="ApuNhBn8Jfl1v1Id8GHo-99" value="acquistabile" style="shape=rhombus;perimeter=rhombusPerimeter;whiteSpace=wrap;html=1;align=center;" vertex="1" parent="1">
          <mxGeometry x="421" y="600" width="105" height="40" as="geometry" />
        </mxCell>
        <mxCell id="ApuNhBn8Jfl1v1Id8GHo-109" style="edgeStyle=orthogonalEdgeStyle;rounded=0;orthogonalLoop=1;jettySize=auto;html=1;exitX=1;exitY=0.25;exitDx=0;exitDy=0;entryX=0;entryY=0.5;entryDx=0;entryDy=0;" edge="1" parent="1" source="ApuNhBn8Jfl1v1Id8GHo-101" target="ApuNhBn8Jfl1v1Id8GHo-105">
          <mxGeometry relative="1" as="geometry" />
        </mxCell>
        <mxCell id="ApuNhBn8Jfl1v1Id8GHo-110" style="edgeStyle=orthogonalEdgeStyle;rounded=0;orthogonalLoop=1;jettySize=auto;html=1;exitX=0;exitY=0.25;exitDx=0;exitDy=0;entryX=1;entryY=0.5;entryDx=0;entryDy=0;" edge="1" parent="1" source="ApuNhBn8Jfl1v1Id8GHo-101" target="ApuNhBn8Jfl1v1Id8GHo-103">
          <mxGeometry relative="1" as="geometry" />
        </mxCell>
        <mxCell id="ApuNhBn8Jfl1v1Id8GHo-111" style="edgeStyle=orthogonalEdgeStyle;rounded=0;orthogonalLoop=1;jettySize=auto;html=1;exitX=0;exitY=0.75;exitDx=0;exitDy=0;entryX=1;entryY=0.5;entryDx=0;entryDy=0;" edge="1" parent="1" source="ApuNhBn8Jfl1v1Id8GHo-101" target="ApuNhBn8Jfl1v1Id8GHo-106">
          <mxGeometry relative="1" as="geometry" />
        </mxCell>
        <mxCell id="ApuNhBn8Jfl1v1Id8GHo-112" style="edgeStyle=orthogonalEdgeStyle;rounded=0;orthogonalLoop=1;jettySize=auto;html=1;exitX=1;exitY=0.75;exitDx=0;exitDy=0;entryX=0.5;entryY=0;entryDx=0;entryDy=0;" edge="1" parent="1" source="ApuNhBn8Jfl1v1Id8GHo-101" target="ApuNhBn8Jfl1v1Id8GHo-126">
          <mxGeometry relative="1" as="geometry">
            <mxPoint x="525.9999999999886" y="760" as="targetPoint" />
          </mxGeometry>
        </mxCell>
        <mxCell id="ApuNhBn8Jfl1v1Id8GHo-101" value="store" style="whiteSpace=wrap;html=1;align=center;" vertex="1" parent="1">
          <mxGeometry x="363.5" y="700" width="100" height="40" as="geometry" />
        </mxCell>
        <mxCell id="ApuNhBn8Jfl1v1Id8GHo-103" value="id_store" style="ellipse;whiteSpace=wrap;html=1;align=center;fontStyle=4;" vertex="1" parent="1">
          <mxGeometry x="226" y="660" width="100" height="40" as="geometry" />
        </mxCell>
        <mxCell id="ApuNhBn8Jfl1v1Id8GHo-105" value="filtro" style="ellipse;shape=doubleEllipse;margin=3;whiteSpace=wrap;html=1;align=center;" vertex="1" parent="1">
          <mxGeometry x="526" y="660" width="100" height="40" as="geometry" />
        </mxCell>
        <mxCell id="ApuNhBn8Jfl1v1Id8GHo-106" value="offerte" style="ellipse;whiteSpace=wrap;html=1;align=center;" vertex="1" parent="1">
          <mxGeometry x="226" y="740" width="100" height="40" as="geometry" />
        </mxCell>
        <mxCell id="ApuNhBn8Jfl1v1Id8GHo-108" value="giochi_pubblicati" style="ellipse;shape=doubleEllipse;margin=3;whiteSpace=wrap;html=1;align=center;" vertex="1" parent="1">
          <mxGeometry x="1056" y="199" width="100" height="40" as="geometry" />
        </mxCell>
        <mxCell id="ApuNhBn8Jfl1v1Id8GHo-115" style="edgeStyle=orthogonalEdgeStyle;rounded=0;orthogonalLoop=1;jettySize=auto;html=1;exitX=0.5;exitY=1;exitDx=0;exitDy=0;" edge="1" parent="1" source="ApuNhBn8Jfl1v1Id8GHo-113">
          <mxGeometry relative="1" as="geometry">
            <mxPoint x="746" y="444" as="targetPoint" />
            <Array as="points">
              <mxPoint x="811" y="414" />
              <mxPoint x="747" y="414" />
              <mxPoint x="747" y="444" />
            </Array>
          </mxGeometry>
        </mxCell>
        <mxCell id="ApuNhBn8Jfl1v1Id8GHo-113" value="pubblica" style="shape=rhombus;perimeter=rhombusPerimeter;whiteSpace=wrap;html=1;align=center;" vertex="1" parent="1">
          <mxGeometry x="766" y="324" width="90" height="40" as="geometry" />
        </mxCell>
        <mxCell id="ApuNhBn8Jfl1v1Id8GHo-116" value="(1, 1)" style="text;html=1;align=center;verticalAlign=middle;resizable=0;points=[];autosize=1;strokeColor=none;fillColor=none;" vertex="1" parent="1">
          <mxGeometry x="306" y="284" width="50" height="30" as="geometry" />
        </mxCell>
        <mxCell id="ApuNhBn8Jfl1v1Id8GHo-117" value="(0, N)" style="text;html=1;align=center;verticalAlign=middle;resizable=0;points=[];autosize=1;strokeColor=none;fillColor=none;" vertex="1" parent="1">
          <mxGeometry x="592" y="281" width="48" height="26" as="geometry" />
        </mxCell>
        <mxCell id="ApuNhBn8Jfl1v1Id8GHo-118" value="(1, N)" style="text;html=1;align=center;verticalAlign=middle;resizable=0;points=[];autosize=1;strokeColor=none;fillColor=none;" vertex="1" parent="1">
          <mxGeometry x="806" y="274" width="50" height="30" as="geometry" />
        </mxCell>
        <mxCell id="ApuNhBn8Jfl1v1Id8GHo-119" value="(1, 1)" style="text;html=1;align=center;verticalAlign=middle;resizable=0;points=[];autosize=1;strokeColor=none;fillColor=none;" vertex="1" parent="1">
          <mxGeometry x="528" y="594" width="46" height="26" as="geometry" />
        </mxCell>
        <mxCell id="ApuNhBn8Jfl1v1Id8GHo-120" value="(1, N)" style="text;html=1;align=center;verticalAlign=middle;resizable=0;points=[];autosize=1;strokeColor=none;fillColor=none;" vertex="1" parent="1">
          <mxGeometry x="414" y="640" width="50" height="30" as="geometry" />
        </mxCell>
        <mxCell id="ApuNhBn8Jfl1v1Id8GHo-121" value="(1, N)" style="text;html=1;align=center;verticalAlign=middle;resizable=0;points=[];autosize=1;strokeColor=none;fillColor=none;" vertex="1" parent="1">
          <mxGeometry x="682" y="384" width="48" height="26" as="geometry" />
        </mxCell>
        <mxCell id="ApuNhBn8Jfl1v1Id8GHo-122" value="(1, 1)" style="text;html=1;align=center;verticalAlign=middle;resizable=0;points=[];autosize=1;strokeColor=none;fillColor=none;" vertex="1" parent="1">
          <mxGeometry x="748" y="384" width="46" height="26" as="geometry" />
        </mxCell>
        <mxCell id="ApuNhBn8Jfl1v1Id8GHo-123" value="(1, 1)" style="text;html=1;align=center;verticalAlign=middle;resizable=0;points=[];autosize=1;strokeColor=none;fillColor=none;" vertex="1" parent="1">
          <mxGeometry x="231" y="412" width="50" height="30" as="geometry" />
        </mxCell>
        <mxCell id="ApuNhBn8Jfl1v1Id8GHo-126" value="classifica_annuale" style="ellipse;shape=doubleEllipse;margin=3;whiteSpace=wrap;html=1;align=center;" vertex="1" parent="1">
          <mxGeometry x="501" y="768" width="100" height="40" as="geometry" />
        </mxCell>
        <mxCell id="ApuNhBn8Jfl1v1Id8GHo-127" value="&lt;font style=&quot;font-size: 17px;&quot;&gt;Progetto del gruppo formato da:&lt;/font&gt;&lt;div style=&quot;font-size: 17px;&quot;&gt;&lt;font style=&quot;font-size: 17px;&quot;&gt;&lt;br&gt;&lt;/font&gt;&lt;/div&gt;&lt;div style=&quot;font-size: 17px;&quot;&gt;&lt;font style=&quot;font-size: 17px;&quot;&gt;Pino Fiorello Romano 0512120259&lt;br&gt;Luigi Pio Rotondo 0512120427&lt;/font&gt;&lt;/div&gt;&lt;div style=&quot;font-size: 17px;&quot;&gt;&lt;font style=&quot;font-size: 17px;&quot;&gt;Francesco Izzo&amp;nbsp;&lt;span style=&quot;background-color: oklab(0.0846607 0.00000385568 0.00000169128 / 0.06); color: oklab(0.89908 -0.00192907 -0.0048306); font-family: &amp;quot;gg sans&amp;quot;, &amp;quot;Noto Sans&amp;quot;, &amp;quot;Helvetica Neue&amp;quot;, Helvetica, Arial, sans-serif; white-space: break-spaces;&quot;&gt;0512119731&lt;/span&gt;&lt;/font&gt;&lt;/div&gt;" style="text;html=1;align=left;verticalAlign=middle;resizable=0;points=[];autosize=1;strokeColor=none;fillColor=none;" vertex="1" parent="1">
          <mxGeometry x="23" y="19" width="281" height="114" as="geometry" />
        </mxCell>
      </root>
    </mxGraphModel>
  </diagram>
</mxfile>
